# xmcd
#
# Track frame offsets:
#	150
#	43888
#	83994
#	125279
#	163116
#	205481
#	249997
#	275833
#
# Disc length: 4268 seconds
#
# Revision: 3
# Processed by: cddbd v1.5.2PL0 Copyright (c) Steve Scherf et al.
# Submitted via: audiograbber 1.83.01
#
DISCID=7410aa08
DTITLE=Kamasi Washington - Heaven And Earth [2CD] [CD 1: Earth)
DYEAR=2018
DGENRE=Jazz
TTITLE0=Fists Of Fury
TTITLE1=Can You Hear Him
TTITLE2=Hub-Tones
TTITLE3=Connections
TTITLE4=Tiffakonkae
TTITLE5=The Invincible Youth
TTITLE6=Testify
TTITLE7=One Of One
EXTD=Release-Date: 22.06.2018\n\nMARO\n
EXTT0=
EXTT1=
EXTT2=
EXTT3=
EXTT4=
EXTT5=
EXTT6=
EXTT7=
PLAYORDER=
